<?xml version="1.0" standalone="no"?><!DOCTYPE svg PUBLIC "-//W3C//DTD SVG 1.1//EN" "http://www.w3.org/Graphics/SVG/1.1/DTD/svg11.dtd"><svg t="1546674423400" class="icon" style="" viewBox="0 0 1024 1024" version="1.1" xmlns="http://www.w3.org/2000/svg" p-id="1549" xmlns:xlink="http://www.w3.org/1999/xlink" width="200" height="200"><defs><style type="text/css"></style></defs><path d="M918.4 489.6l-160-160c-12.8-12.8-32-12.8-44.8 0-12.8 12.8-12.8 32 0 44.8l105.6 105.6L512 480c-19.2 0-32 12.8-32 32s12.8 32 32 32l307.2 0-105.6 105.6c-12.8 12.8-12.8 32 0 44.8 6.4 6.4 12.8 9.6 22.4 9.6 9.6 0 16-3.2 22.4-9.6l160-163.2c0 0 0-3.2 3.2-3.2C931.2 518.4 931.2 499.2 918.4 489.6zM832 736c-19.2 0-32 12.8-32 32l0 64c0 19.2-12.8 32-32 32L224 864c-19.2 0-32-12.8-32-32L192 192c0-19.2 12.8-32 32-32l544 0c19.2 0 32 12.8 32 32l0 64c0 19.2 12.8 32 32 32s32-12.8 32-32L864 192c0-54.4-41.6-96-96-96L224 96C169.6 96 128 137.6 128 192l0 640c0 54.4 41.6 96 96 96l544 0c54.4 0 96-41.6 96-96l0-64C864 748.8 851.2 736 832 736z" p-id="1550"></path></svg>