<?xml version="1.0" standalone="no"?><!DOCTYPE svg PUBLIC "-//W3C//DTD SVG 1.1//EN" "http://www.w3.org/Graphics/SVG/1.1/DTD/svg11.dtd"><svg t="1546676274162" class="icon" style="" viewBox="0 0 1024 1024" version="1.1" xmlns="http://www.w3.org/2000/svg" p-id="2366" xmlns:xlink="http://www.w3.org/1999/xlink" width="200" height="200"><defs><style type="text/css"></style></defs><path d="M607.562984 551.517015l-98.718349-253.952876L401.013745 500.467339l-60.158125-61.84044-101.941763 63.382563 28.748764 16.547885 65.204048-40.668235 78.806857 81.059154 91.140767-171.504072 100.821243 259.423471 85.954651-181.039239 35.0554 74.602092 38.424124-6.449899-73.197092-155.790182L607.562984 551.517015 607.562984 551.517015zM908.059919 762.41019 908.059919 222.121913c0-19.631106-14.7264-35.617196-32.810267-35.617196L145.106354 186.504718c-18.08489 0-32.810267 15.986089-32.810267 35.617196l0 540.288277-107.549481 0 0 29.446659c0 19.631106 14.721283 35.617196 32.810267 35.617196l948.887278 0c18.090007 0 32.810267-15.844873 32.810267-35.617196l0-29.446659L908.059919 762.41019 908.059919 762.41019zM579.235822 791.30017 444.905394 791.30017l0-23.134907L579.235822 768.165264 579.235822 791.30017 579.235822 791.30017zM854.49291 733.103724 165.862074 733.103724 165.862074 245.820662l688.630836 0L854.49291 733.103724 854.49291 733.103724zM854.49291 733.103724" p-id="2367"></path></svg>