<?xml version="1.0" encoding="utf-8"?>
<!-- Generator: Adobe Illustrator 18.1.0, SVG Export Plug-In . SVG Version: 6.00 Build 0)  -->
<svg version="1.1" id="图层_1" xmlns="http://www.w3.org/2000/svg" xmlns:xlink="http://www.w3.org/1999/xlink" x="0px" y="0px"
	 viewBox="0 0 500 500" enable-background="new 0 0 500 500" xml:space="preserve">
<g>
	<g>
		<path fill="#F2F5F4" d="M334.2,155.3H31.5c-7.6,0-13.8,6.2-13.8,13.8V403c0,7.6,6.2,13.8,13.8,13.8h302.6
			c7.6,0,13.8-6.2,13.8-13.8V169.2C348,161.5,341.8,155.3,334.2,155.3z"/>
		<g>
			<path fill="#FFFFFF" stroke="#F2F5F4" stroke-miterlimit="10" d="M349.4,138.7H46.8c-7.6,0-13.8,6.2-13.8,13.8v233.8
				c0,7.6,6.2,13.8,13.8,13.8h302.6c7.6,0,13.8-6.2,13.8-13.8V152.5C363.3,144.9,357.1,138.7,349.4,138.7z"/>
			<path fill="#F2F5F4" d="M349.4,144.5H46.8c-7.6,0-13.8,6.2-13.8,13.8v10.7h330.3v-10.7C363.3,150.7,357.1,144.5,349.4,144.5z"/>
			<path fill="#FFFFFF" d="M349.4,138.7H46.8c-7.6,0-13.8,6.2-13.8,13.8v10.7h330.3v-10.7C363.3,144.9,357.1,138.7,349.4,138.7z"/>
			<circle fill="#D57548" cx="50" cy="151" r="4.2"/>
			<circle fill="#FFB72F" cx="66.6" cy="151" r="4.2"/>
			<circle fill="#AABC95" cx="83.2" cy="151" r="4.2"/>
		</g>
		<g>
			
				<line fill="none" stroke="#F2F5F4" stroke-width="5" stroke-linecap="round" stroke-linejoin="round" stroke-miterlimit="10" x1="262.6" y1="184.4" x2="326.3" y2="184.4"/>
			
				<line fill="none" stroke="#F2F5F4" stroke-width="5" stroke-linecap="round" stroke-linejoin="round" stroke-miterlimit="10" x1="262.6" y1="196.7" x2="326.3" y2="196.7"/>
			
				<line fill="none" stroke="#F2F5F4" stroke-width="5" stroke-linecap="round" stroke-linejoin="round" stroke-miterlimit="10" x1="262.6" y1="209.1" x2="326.3" y2="209.1"/>
			
				<line fill="none" stroke="#F2F5F4" stroke-width="5" stroke-linecap="round" stroke-linejoin="round" stroke-miterlimit="10" x1="262.6" y1="221.4" x2="326.3" y2="221.4"/>
			
				<line fill="none" stroke="#F2F5F4" stroke-width="5" stroke-linecap="round" stroke-linejoin="round" stroke-miterlimit="10" x1="262.6" y1="233.8" x2="326.3" y2="233.8"/>
			
				<line fill="none" stroke="#F2F5F4" stroke-width="5" stroke-linecap="round" stroke-linejoin="round" stroke-miterlimit="10" x1="57.7" y1="258.5" x2="326.3" y2="258.5"/>
			
				<line fill="none" stroke="#F2F5F4" stroke-width="5" stroke-linecap="round" stroke-linejoin="round" stroke-miterlimit="10" x1="57.7" y1="270.8" x2="326.3" y2="270.8"/>
			
				<line fill="none" stroke="#F2F5F4" stroke-width="5" stroke-linecap="round" stroke-linejoin="round" stroke-miterlimit="10" x1="57.7" y1="283.2" x2="326.3" y2="283.2"/>
			
				<line fill="none" stroke="#F2F5F4" stroke-width="5" stroke-linecap="round" stroke-linejoin="round" stroke-miterlimit="10" x1="57.7" y1="295.5" x2="326.3" y2="295.5"/>
			
				<line fill="none" stroke="#F2F5F4" stroke-width="5" stroke-linecap="round" stroke-linejoin="round" stroke-miterlimit="10" x1="57.7" y1="307.9" x2="326.3" y2="307.9"/>
			
				<line fill="none" stroke="#F2F5F4" stroke-width="5" stroke-linecap="round" stroke-linejoin="round" stroke-miterlimit="10" x1="171.5" y1="327.8" x2="267.5" y2="327.8"/>
			
				<line fill="none" stroke="#F2F5F4" stroke-width="5" stroke-linecap="round" stroke-linejoin="round" stroke-miterlimit="10" x1="171.5" y1="340.2" x2="267.5" y2="340.2"/>
			
				<line fill="none" stroke="#F2F5F4" stroke-width="5" stroke-linecap="round" stroke-linejoin="round" stroke-miterlimit="10" x1="171.5" y1="352.5" x2="267.5" y2="352.5"/>
			
				<line fill="none" stroke="#F2F5F4" stroke-width="5" stroke-linecap="round" stroke-linejoin="round" stroke-miterlimit="10" x1="171.5" y1="364.9" x2="238.6" y2="364.9"/>
			
				<line fill="none" stroke="#F2F5F4" stroke-width="5" stroke-linecap="round" stroke-linejoin="round" stroke-miterlimit="10" x1="171.5" y1="377.2" x2="238.6" y2="377.2"/>
			<g>
				
					<circle fill="none" stroke="#F2F5F4" stroke-width="5" stroke-linecap="round" stroke-linejoin="round" stroke-miterlimit="10" cx="218.8" cy="210.8" r="33.9"/>
				
					<polyline fill="none" stroke="#F2F5F4" stroke-width="5" stroke-linecap="round" stroke-linejoin="round" stroke-miterlimit="10" points="
					218.8,176.9 218.8,210.8 243.7,233.8 				"/>
			</g>
			<g>
				
					<circle fill="none" stroke="#F2F5F4" stroke-width="5" stroke-linecap="round" stroke-linejoin="round" stroke-miterlimit="10" cx="90.3" cy="353.7" r="33.9"/>
				
					<polyline fill="none" stroke="#F2F5F4" stroke-width="5" stroke-linecap="round" stroke-linejoin="round" stroke-miterlimit="10" points="
					90.3,319.8 90.3,353.7 115.2,376.7 				"/>
			</g>
			
				<rect x="277.3" y="324.2" fill="none" stroke="#F2F5F4" stroke-width="5" stroke-linecap="round" stroke-linejoin="round" stroke-miterlimit="10" width="61.1" height="54.2"/>
			
				<polygon fill="none" stroke="#F2F5F4" stroke-width="5" stroke-linecap="round" stroke-linejoin="round" stroke-miterlimit="10" points="
				56.5,183.7 112.1,237.9 56.5,237.9 			"/>
		</g>
	</g>
	<g>
		<g>
			<g>
				<path fill="#F2F5F4" d="M453.8,132.3H323.3c-7.6,0-13.8,6.2-13.8,13.8v77.4c0,7.6,6.2,13.8,13.8,13.8h130.5
					c7.6,0,13.8-6.2,13.8-13.8v-77.4C467.7,138.5,461.5,132.3,453.8,132.3z"/>
				<g>
					<path fill="#FFFFFF" stroke="#F1F1F3" stroke-miterlimit="10" d="M466.1,121.7H335.6c-7.6,0-13.8,6.2-13.8,13.8v77.4
						c0,7.6,6.2,13.8,13.8,13.8h130.5c7.6,0,13.8-6.2,13.8-13.8v-77.4C479.9,127.9,473.8,121.7,466.1,121.7z"/>
					<path fill="#F2F5F4" d="M466.1,127.5H335.6c-7.6,0-13.8,6.2-13.8,13.8v10.7h158.2v-10.7C479.9,133.7,473.8,127.5,466.1,127.5z"
						/>
					<path fill="#FFFFFF" stroke="#F1F1F3" stroke-miterlimit="10" d="M466.1,121.7H335.6c-7.6,0-13.8,6.2-13.8,13.8v10.7h158.2
						v-10.7C479.9,127.9,473.8,121.7,466.1,121.7z"/>
					<g>
						
							<line fill="none" stroke="#E3E9E7" stroke-width="5" stroke-linecap="round" stroke-linejoin="round" stroke-miterlimit="10" x1="390.7" y1="133.9" x2="411.9" y2="133.9"/>
						
							<line fill="none" stroke="#E3E9E7" stroke-width="5" stroke-linecap="round" stroke-linejoin="round" stroke-miterlimit="10" x1="421.8" y1="133.9" x2="464.9" y2="133.9"/>
					</g>
					<circle fill="#D57548" cx="338.8" cy="133.9" r="4.2"/>
					<circle fill="#FFB72F" cx="355.4" cy="133.9" r="4.2"/>
					<circle fill="#AABC95" cx="372" cy="133.9" r="4.2"/>
				</g>
			</g>
		</g>
		<g>
			<path fill="none" stroke="#EAA105" stroke-miterlimit="10" d="M344.6,201.1c30.3-33.2,60.2,0,60.2,0c31.3-34.4,60.2,0,60.2,0"/>
			<g>
				<line fill="none" stroke="#450000" stroke-miterlimit="10" x1="344.6" y1="201.1" x2="464.9" y2="201.1"/>
				<line fill="none" stroke="#450000" stroke-miterlimit="10" x1="464.9" y1="194.7" x2="464.9" y2="204.8"/>
				<line fill="none" stroke="#450000" stroke-miterlimit="10" x1="344.6" y1="194.7" x2="344.6" y2="204.8"/>
			</g>
			<path fill="none" stroke="#450000" stroke-miterlimit="10" d="M466.2,184.7h-2.6c-0.9,0-1.6,0.7-1.6,1.6v2.6
				c0,0.9,0.7,1.6,1.6,1.6h2.6c0.9,0,1.6-0.7,1.6-1.6v-2.6C467.9,185.5,467.1,184.7,466.2,184.7z"/>
			<path fill="none" stroke="#450000" stroke-miterlimit="10" d="M345.9,184.7h-2.6c-0.9,0-1.6,0.7-1.6,1.6v2.6
				c0,0.9,0.7,1.6,1.6,1.6h2.6c0.9,0,1.6-0.7,1.6-1.6v-2.6C347.5,185.5,346.8,184.7,345.9,184.7z"/>
			<path fill="none" stroke="#450000" stroke-miterlimit="10" d="M406.1,205.4h-2.6c-0.9,0-1.6,0.7-1.6,1.6v2.6
				c0,0.9,0.7,1.6,1.6,1.6h2.6c0.9,0,1.6-0.7,1.6-1.6V207C407.7,206.1,407,205.4,406.1,205.4z"/>
			<circle fill="none" stroke="#C43F00" stroke-miterlimit="10" cx="404.8" cy="208.3" r="8.8"/>
			<g>
				<g>
					<path fill="#AABC95" d="M346.9,175.5l-1.2-1.9l-1.2,1.9c-0.2,0.3-0.6,0.6-1,0.6H343c-1,0-1.5-1.1-1-1.9l1.9-2.7l-1.8-2.6
						c-0.6-0.8,0-1.9,1-1.9h0.5c0.4,0,0.8,0.2,1,0.5l1.2,1.8l1.2-1.7c0.2-0.3,0.6-0.5,1-0.5h0.3c1,0,1.5,1.1,1,1.9l-1.8,2.5l2,2.8
						c0.6,0.8,0,1.9-1,1.9h-0.6C347.5,176,347.1,175.8,346.9,175.5z"/>
				</g>
				<g>
					<path fill="#AABC95" d="M368.8,172.7v2.1c0,0.7-0.5,1.2-1.2,1.2H367c-0.7,0-1.2-0.5-1.2-1.2v-2.1l-2.4-3.9
						c-0.5-0.8,0.1-1.8,1-1.8h0.5c0.4,0,0.8,0.2,1,0.6l1.5,2.6l1.5-2.6c0.2-0.4,0.6-0.6,1-0.6h0.2c0.9,0,1.5,1,1,1.8L368.8,172.7z"
						/>
				</g>
				<g>
					<path fill="#AABC95" d="M390,174.8L390,174.8c0,0.7-0.5,1.2-1.2,1.2h-5.7c-0.8,0-1.4-0.6-1.4-1.4l0,0c0-0.3,0.1-0.6,0.3-0.8
						l3.9-4.5h-2.8c-0.7,0-1.2-0.5-1.2-1.2l0,0c0-0.7,0.5-1.2,1.2-1.2h5.4c0.8,0,1.4,0.6,1.4,1.4l0,0c0,0.3-0.1,0.6-0.3,0.8
						l-3.9,4.5h3.2C389.4,173.6,390,174.2,390,174.8z"/>
				</g>
				<g>
					<g>
						<path fill="#AABC95" d="M360.1,170.8h-5.1c-0.5,0-0.9-0.4-0.9-0.9v-0.7c0-0.5,0.4-0.9,0.9-0.9h5.1c0.5,0,0.9,0.4,0.9,0.9v0.7
							C361,170.4,360.6,170.8,360.1,170.8z"/>
					</g>
					<g>
						<path fill="#AABC95" d="M360.1,175h-5.1c-0.5,0-0.9-0.4-0.9-0.9v-0.7c0-0.5,0.4-0.9,0.9-0.9h5.1c0.5,0,0.9,0.4,0.9,0.9v0.7
							C361,174.6,360.6,175,360.1,175z"/>
					</g>
				</g>
				<g>
					<g>
						<path fill="#AABC95" d="M377.7,174.4l-3.6-3.6c-0.4-0.4-0.4-0.9,0-1.3l0.5-0.5c0.4-0.4,0.9-0.4,1.3,0l3.6,3.6
							c0.4,0.4,0.4,0.9,0,1.3l-0.5,0.5C378.6,174.7,378.1,174.7,377.7,174.4z"/>
					</g>
					<g>
						<path fill="#AABC95" d="M374.1,172.6l3.6-3.6c0.4-0.4,0.9-0.4,1.3,0l0.5,0.5c0.4,0.4,0.4,0.9,0,1.3l-3.6,3.6
							c-0.4,0.4-0.9,0.4-1.3,0l-0.5-0.5C373.7,173.5,373.7,172.9,374.1,172.6z"/>
					</g>
				</g>
			</g>
			<g>
				
					<line fill="none" stroke="#E3E9E7" stroke-width="5" stroke-linecap="round" stroke-linejoin="round" stroke-miterlimit="10" x1="400.9" y1="167.2" x2="464.9" y2="167.2"/>
				
					<line fill="none" stroke="#E3E9E7" stroke-width="5" stroke-linecap="round" stroke-linejoin="round" stroke-miterlimit="10" x1="400.9" y1="177" x2="432.9" y2="177"/>
			</g>
		</g>
	</g>
	<g>
		<path fill="#C43F00" d="M221.9,367.4H108.4c-25.2-2.6-20.3-30.3,8.1-43.6c0.7-0.3,1.4-0.6,2.1-0.9l92.4-3.6c1.6,0.9,3.3,1.9,5,3
			c0.1,0.1,0.2,0.1,0.3,0.2C233.5,333.9,252.8,356.1,221.9,367.4z"/>
		<path d="M101.8,400.2h131.9c-8.5-44.5-25.2-68.3-25.2-68.3l-80.5-4.8C108.9,346,103.3,379.4,101.8,400.2z"/>
		<path fill="#B22900" d="M272.5,302c-3.6,28.8-56.9,31.6-47.8-8.9L272.5,302z"/>
		<path fill="#B22900" d="M268.2,289.9l-33.4,30.8c-10.9-11.3-51.3-70.6-58.8-98.4c-3.2-11.9,3.2-24.3,14.8-28.4
			c4.8-1.7,9.9-1.8,14.5-0.4c5,1.5,9.6,4.6,12.7,9.1L268.2,289.9z"/>
		<g>
			<path fill="#450000" d="M313.2,227.5l-8.2,5.8c-1.7,1.2-4.1,0.8-5.4-0.9l-4.9-6.9c-1.2-1.7-0.8-4.1,0.9-5.4l8.2-5.8
				c1.7-1.2,4.1-0.8,5.4,0.9l4.9,6.9C315.4,223.9,315,226.3,313.2,227.5z"/>
			<path fill="#EFBFA9" d="M330.9,220.7c-14.6,9.2-27.4,62-57.6,84.5c-1.7,1.3-3.5,2.3-5.3,3c-15.6,6.5-34.3-5-34.3-23.2l22.4-20.5
				l50.4-46.1L330.9,220.7z"/>
			<path fill="#ECB298" d="M267.9,308.2c-15.6,6.5-34.3-5-34.3-23.2l22.4-20.5C241.5,291.9,249.4,312,267.9,308.2
				C267.9,308.2,267.9,308.2,267.9,308.2z"/>
			<g>
				<path fill="#EFBFA9" d="M306.5,218.5l-5.6,13.6c24.2,12,41.5,0.7,52.2-0.9l-14.1-28.7L306.5,218.5z"/>
				<path fill="#EFBFA9" d="M347.6,215.5c-0.5,0.3-1,0.8-1.4,1.3c-0.1,0.1-0.2,0.3-0.3,0.4c-0.9,1.6-0.9,3.5,0,5.1
					c0.3,0.6,0.8,1.1,1.3,1.6l3.5,2.7l5,3.8c0.7,0.5,1.5,0.9,2.3,1c1.2,0.2,2.3-0.1,3.3-0.7c0.5-0.3,1-0.8,1.4-1.3
					c1.4-2,1.1-4.7-0.6-6.4l0,0c-0.1-0.1-0.2-0.2-0.3-0.3l-8.3-6.8c-0.1-0.1-0.2-0.1-0.3-0.2C351.6,214.4,349.4,214.4,347.6,215.5z"
					/>
				<path fill="#EFBFA9" d="M380.8,202.6c0.4-2.5-1.4-4.7-3.9-4.9l-21.4-1.6l-21,6.1l3.6,18.1l23.2-13.7l15.6-0.5
					C378.8,206.1,380.5,204.6,380.8,202.6z"/>
				<polygon fill="#E89076" points="334.5,202.2 338.8,201 355.1,203.8 357.8,208.6 337,220.3 				"/>
				<path fill="#EFBFA9" d="M358.6,238.1c-1,1.4-2.8,2.3-4.7,2l-10.6-1.4c-2.7-0.4-4.7-2.9-4.4-5.6c0.1-0.8,0.4-1.5,0.7-2.2
					c0.1-0.1,0.1-0.2,0.2-0.3c0.1-0.1,0.1-0.2,0.2-0.3c1.1-1.4,2.9-2.1,4.8-1.8l10.6,1.8c1.5,0.3,2.8,1.2,3.5,2.4
					c0.1,0.2,0.2,0.4,0.3,0.6c0.3,0.7,0.5,1.5,0.4,2.3C359.5,236.6,359.1,237.4,358.6,238.1z"/>
				<path fill="#E89076" d="M358.9,232.7c-0.7,0.6-1.7,1-2.7,1l-10.7,0.8c-2.7,0.2-5.9-1.5-5.9-5.1c1.1-1.4,3.4-1.3,5.2-1l10.6,1.8
					C356.9,230.6,358.2,231.5,358.9,232.7z"/>
				<path fill="#E89076" d="M355.4,227.7c-0.7,1.2-2,2.1-3.4,2.3l-7.3,1c-2.7,0.4-5.3-1.4-5.8-4.1c-0.2-1.2,0-2.3,0.5-3.3
					c0-0.1,0.1-0.2,0.2-0.3c0.8-1.3,2.1-2.2,3.7-2.4l7.4-0.7c1.3-0.1,2.5,0.2,3.5,0.9c1,0.7,1.7,1.8,2,3.1
					C356.3,225.4,356,226.6,355.4,227.7z"/>
				<path fill="#EFBFA9" d="M341.4,224.4c-0.1,0.1-0.1,0.2-0.2,0.3c-0.1,0.1-0.1,0.2-0.2,0.3l0,0c-0.5,0.9-0.7,1.9-0.6,2.9
					c0.3,2.7,2.7,4.8,5.5,4.5l10.7-0.8c0.5,0,1-0.2,1.5-0.4c0.9-0.3,1.6-0.9,2.1-1.7c0.7-1,1.1-2.2,0.9-3.5c-0.1-0.7-0.3-1.4-0.7-2
					c-0.3-0.5-0.6-0.9-1.1-1.2c-0.9-0.8-2.1-1.2-3.4-1.1l-10.1,0.4l-0.6,0C343.7,222.4,342.3,223.2,341.4,224.4z"/>
				<path fill="#E89076" d="M346,222.2l-0.6,0c-1.6,0.1-3,0.9-3.9,2.1c-0.1,0.1-0.1,0.2-0.2,0.3c-0.1,0.1-0.1,0.2-0.2,0.3l0,0
					c1.1,2,3.4,3,5.6,2.5l4.1-1l8.9-2.1c0.2-0.1,0.5-0.1,0.7-0.2c0.7-0.3,1.3-0.7,1.8-1.2l0,0c-0.1-0.1-0.2-0.2-0.3-0.3l-8.3-6.8
					c-0.1-0.1-0.2-0.1-0.3-0.2l-7.4,1.6C345.1,218.8,345.1,220.7,346,222.2z"/>
				<path fill="#EFBFA9" d="M347.1,208c-0.7,0.5-1.4,1.1-1.8,2c-1.3,2.5-0.3,5.5,2.1,6.8l3,1.7l6.4,3.5c1,0.5,2,0.7,3,0.6
					c0.7-0.1,1.4-0.3,2-0.7c0.7-0.5,1.4-1.2,1.8-2c1.1-2.3,0.3-5.1-1.9-6.4l-3-1.8l-3.2-1.9l-3.1-1.8
					C350.7,206.9,348.6,207,347.1,208z"/>
				<path fill="#E89076" d="M355.9,219.4c-0.5,1.3-1.6,2.3-3,2.8l-7.1,2.1c-2.6,0.9-5.5-0.6-6.4-3.2c-0.4-1.2-0.4-2.3,0-3.4
					c0-0.1,0.1-0.2,0.1-0.3c0.6-1.4,1.8-2.5,3.3-3l7.2-1.8c1.2-0.3,2.5-0.2,3.5,0.3c1.1,0.5,2,1.5,2.4,2.7
					C356.4,217,356.3,218.3,355.9,219.4z"/>
				<path fill="#EFBFA9" d="M361,220.6c-0.6,1.2-1.8,2.2-3.3,2.6l-10.5,2.4c-2.7,0.6-5.4-1-6.1-3.6c-0.3-1.2-0.2-2.3,0.3-3.4
					c0-0.1,0.1-0.2,0.1-0.3c0.7-1.3,1.9-2.4,3.5-2.7l10.5-2.1c1.2-0.2,2.5,0,3.5,0.6c1.1,0.6,1.9,1.6,2.2,2.9
					C361.8,218.2,361.6,219.5,361,220.6z"/>
				<g>
					<g>
						<path fill="#E89076" d="M312.5,221.1l23.8-13.7l16.4,3.3l-5.8,8.2l-6.8,0.7C340.1,219.5,330,239.5,312.5,221.1z"/>
						<path fill="#E89076" d="M352.7,210.6l4.1,8.8c0.9,1.9,0.1,4.2-1.8,5.1l0,0c-1.7,0.8-3.7,0.3-4.8-1.2l-3.2-4.5L352.7,210.6z"/>
					</g>
					<g>
						<path fill="#EFBFA9" d="M306.5,218.5l28-16.3l19.4,3.8l-6.8,9.7l-8,0.8C339.1,216.5,327.2,240.2,306.5,218.5z"/>
						<path fill="#E89076" d="M355.5,209.7l-6.3,6.2l1.2,2.5l1.6,3.3c0.1,0.2,0.2,0.4,0.3,0.5c1.1,1.7,3.1,2.5,5.1,1.9
							c1-0.3,1.9-0.9,2.5-1.7c0.8-1.1,1.1-2.4,0.7-3.8l-1.8-7.1L355.5,209.7z"/>
						<path fill="#EFBFA9" d="M353.9,206l4.9,10.4c1.1,2.3,0.1,4.9-2.1,6l0,0c-2,1-4.4,0.4-5.7-1.4l-3.8-5.3L353.9,206z"/>
					</g>
				</g>
			</g>
			<polygon fill="#450000" points="306,217.9 319.8,238.7 315.4,245.7 298.4,223.9 			"/>
		</g>
		<path fill="#C43F00" d="M224.7,356.1l-87.2,0.2l-31.7,0.1c0,0,5.8-14,10.8-32.5c4.2-15.5,7.9-34.2,7.3-50.4
			c-0.4-9.7-1.7-19.9-1.7-30.3c0-6.6-5.5-52.5,0-56.7c12.8-9.7,49.4-11.3,47.2-9.2l28.7,16.3c1.6,5.5,17.2,27.1,19.7,39.6
			c0.2,0.9,0.4,1.9,0.5,2.9c0.5,3.3,0.8,6.6,0.8,10c0,0.9,0,2-0.1,3c-0.1,1.4-0.2,2.9-0.5,4.4c-1.4,8.6-5.4,17.2-13.8,24.7l0.1,0.6
			l0,0.1l5.6,21.7l5.6,21.8l0.2,0.6L224.7,356.1z"/>
		<path fill="#B22900" d="M216.3,322.5l-0.1,0.4l-75.5,22.6l-3.2,10.7l-2.2,7.4l-5.8,3.8h-21c-25.2-2.6-20.3-30.3,8.1-43.6
			c4.2-15.5,7.9-34.2,7.3-50.4c-0.4-9.7-1.7-19.9-1.7-30.3l28.8-29.8l-0.7,70.2l49.6,8.5l10.6,8.5l5.6,21.8
			C216.1,322.4,216.2,322.5,216.3,322.5z"/>
		<g>
			<defs>
				<path id="SVGID_1_" d="M217.4,345.6l-92.6-1.7c0,0,0.6-34.9-0.9-70.5c-0.6-15.8-3.6-33,0.5-50.4c11-45.8,47.3-47.8,45.1-45.8
					l28.7,16.3c1.6,5.5,17.1,27.1,19.7,39.6c0.2,0.9,0.4,1.9,0.5,2.9c0.5,3.3,0.8,6.6,0.8,10c0,1,0,2-0.1,3c-0.1,1.5-0.2,3-0.5,4.4
					c-1.4,8.6-5.4,17.2-13.8,24.7l0.1,0.6l0,0.1L217.4,345.6z"/>
			</defs>
			<clipPath id="SVGID_2_">
				<use xlink:href="#SVGID_1_"  overflow="visible"/>
			</clipPath>
			<g clip-path="url(#SVGID_2_)">
				<polygon fill="none" stroke="#EAA105" stroke-miterlimit="10" points="170.7,254.5 154.3,280.1 137.9,254.5 154.3,229 				"/>
				<polygon fill="none" stroke="#EAA105" stroke-miterlimit="10" points="203.2,254.5 186.8,280.1 170.5,254.5 186.8,229 				"/>
				<polygon fill="none" stroke="#EAA105" stroke-miterlimit="10" points="235.7,254.5 219.4,280.1 203,254.5 219.4,229 				"/>
			</g>
		</g>
		<g>
			<circle fill="#450000" cx="219.8" cy="106" r="19.1"/>
			<circle fill="#450000" cx="200.3" cy="84.4" r="19.1"/>
			<circle fill="#450000" cx="175.3" cy="91.4" r="19.1"/>
			<path fill="#450000" d="M151.3,103c-7.7,19.8-5,32.4,7.5,40.6l11.8-12.9l-7.1-31L151.3,103z"/>
			<polygon fill="#EFBFA9" points="158,130.7 162.5,178.9 198.4,203.1 198.9,143.8 			"/>
			<polygon fill="#450000" points="152.2,144.2 160.7,159 166,147.7 			"/>
			<path fill="#E89076" d="M198.6,182.9c0,0-22.1-4-22.8-29l23.1,7.5L198.6,182.9z"/>
			<path fill="#450000" d="M213.4,95.7c10.7,13.1,12.1,30.4,12.1,30.4l-11.6,1.8l-8.8-27.8L213.4,95.7z"/>
			<path fill="#EFBFA9" d="M161.7,111l3.5,13.7l1.6,6.2l4.2,16.7c2.3,9,9.1,16.2,18,19l13.8,4.4c12,3.8,24.3-4.5,25.4-17
				c0.8-9.2,0.8-19.9-2.7-31.2c-4.1-13.2-14.6-23.5-27.2-27.6l-0.1,0l-2.2-0.7l-0.2-0.1c-1.1-0.3-2.2-0.5-3.4-0.7
				c-2.7-0.5-5.5-0.7-8.3-0.6l-8.9,0.3C165.9,93.6,159.4,102.2,161.7,111z"/>
			<ellipse fill="none" stroke="#FFFFFF" stroke-miterlimit="10" cx="224.5" cy="130.8" rx="11.6" ry="12.9"/>
			<g>
				
					<ellipse transform="matrix(0.9954 -9.587169e-002 9.587169e-002 0.9954 -11.8277 21.4619)" cx="217.4" cy="133.8" rx="2.7" ry="6"/>
				<path fill="#EFBFA9" d="M210.7,128.7c3,7.2,7.9,8.7,11.4,8.7c2.2,0,4,1.7,4.2,3.9l0,0c0.2,2.9-1.3,5.7-3.8,7.1l-9,4.9
					c-5.1,1.7-10.5-1.3-11.7-6.6l-4.1-17.7L210.7,128.7z"/>
				<g>
					<path fill="#E89076" d="M216.7,152.2l-0.6-1l6-3.3c2.4-1.3,3.7-3.8,3.5-6.5c-0.2-1.9-1.7-3.4-3.6-3.4
						c-3.7-0.1-8.8-1.7-11.9-9.1l1.1-0.4c2.8,6.8,7.5,8.3,10.9,8.4c2.5,0,4.6,2,4.8,4.5c0.3,3.1-1.4,6.1-4.1,7.6L216.7,152.2z"/>
				</g>
				
					<ellipse transform="matrix(0.9954 -9.587169e-002 9.587169e-002 0.9954 -12.203 19.5709)" cx="197.6" cy="136.8" rx="2.7" ry="6"/>
				<path fill="#450000" d="M191.8,123.5c-7.4,3.1-9.5-0.7-4.1-4C193.4,116.1,201.1,119.7,191.8,123.5z"/>
				<path fill="#450000" d="M213.3,120c-5.8-0.9-4.2-4.6,0.7-4.7C219.2,115.3,220.5,121.2,213.3,120z"/>
				<path fill="#FFFFFF" d="M213.4,154.6l-13.4-1c0,0,1.5,7.7,5.4,8.6C209.6,163.1,213.4,154.6,213.4,154.6z"/>
			</g>
			<ellipse fill="none" stroke="#FFFFFF" stroke-miterlimit="10" cx="195.1" cy="136.8" rx="11.6" ry="12.9"/>
			<line fill="none" stroke="#FFFFFF" stroke-miterlimit="10" x1="183.5" y1="134.4" x2="170.5" y2="130.7"/>
			<path fill="#450000" d="M181,93.2c7,16.6-6.2,39.3-33.9,37.7C135.3,107.2,135.8,86.1,181,93.2z"/>
			<path fill="#EFBFA9" d="M171.4,132.7c-27.9-38.3-42.3,22.3-1.4,19.2L171.4,132.7z"/>
			<polygon fill="#450000" points="171.1,108.2 171.7,140.3 169,142.1 158.8,111.2 			"/>
			<path fill="#450000" d="M172.7,96.7c22.3,8.7,42.6,1.5,42.6,1.5S207.8,80.4,172.7,96.7z"/>
			<path fill="#450000" d="M144.5,100.3c0-11.3-12.5-5.9-3.9,1.4c-15.1-2-3.7,16.6,3.3,10.1"/>
		</g>
		<path fill="#FFFFFF" d="M199.8,203.8L199.8,203.8c4.8-26.3-19.9-31.8-38.5-39.5l-10.3,13.2L199.8,203.8z"/>
		<g>
			<path fill="#C43F00" d="M111.8,279c19.7-3.8,37.9,1.7,28.2,21.2l-30,1.8L111.8,279z"/>
			<path fill="#C43F00" d="M107.4,335.5c-53.3,13.8-44.6-43.3-12.9-51.9L107.4,335.5z"/>
		</g>
		<path fill="#C43F00" d="M109.8,321l-31.7,4.7c-5.7-44.9,7.6-93.9,37.5-133.4c7-9.2,19.9-11.5,29.6-5.3l0,0
			c8.4,5.4,12.2,15.7,9.2,25.2L109.8,321z"/>
		<g>
			<g>
				<path fill="#E5EBEA" d="M267.3,256.2l-2.5-3.1l0,0c-0.3-0.3-0.7-0.6-1.2-0.7l-47.5-6.3c-1.4-0.2-2.8,0.4-3.7,1.5l-51.1,62.5
					c-0.9,1.1-0.3,2.7,1,3.1l32.7,7.6c1.3,0.3,2.8-0.1,3.7-1l65.3-63.6H267.3z"/>
				<path fill="#FFFFFF" d="M163.8,313.2l51.1-62.5c0.9-1.1,2.3-1.6,3.7-1.5l47.5,6.3c1.6,0.2,2.2,2.1,1.1,3.3l-65.8,64.1
					c-1,1-2.4,1.4-3.7,1l-32.7-7.6C163.5,316,162.9,314.3,163.8,313.2z"/>
				<path fill="#E5EBEA" d="M227.4,282.6c-2.8,4.6-8.2,8.2-12.2,8.2s-5-3.9-2.2-8.5c2.8-4.6,8.2-8.2,12.2-8.2
					C229.1,274.3,230.1,278.1,227.4,282.6z"/>
				<path fill="#E5EBEA" d="M220.3,255.9c-0.6,1.1-1.9,1.9-2.8,1.9c-0.9,0-1.2-0.9-0.5-2c0.6-1.1,1.9-1.9,2.8-1.9
					C220.7,253.9,220.9,254.8,220.3,255.9z"/>
			</g>
			<g>
				<polygon fill="#EFBFA9" points="199.6,315.6 242.8,286.1 187.3,290.3 182.6,308.9 				"/>
				<path fill="#EFBFA9" d="M191.7,292.2l-7.8-1.1c-2.3-0.3-3.7-2.7-2.8-4.9l0.3-0.7c1.7-4.1,6.5-5.8,10.4-3.8l0,0
					c2.6,1.4,4.2,4.2,4,7.1l0,0C195.6,291,193.7,292.5,191.7,292.2z"/>
				<path fill="#EFBFA9" d="M208.9,291.9l34-5.8l0.4-1c1.6-3.9,4.8-7,8.8-8.3c0.6-0.2,1.1-0.8,1-1.5c0-0.1,0-0.2,0-0.3
					c-0.6-2.7-3-4.5-5.7-4.5c-0.4,0-0.9,0.1-1.3,0.2l-2,0.7l-0.2,0.1c-3.5,1.2-6.1,4-7.1,7.6l-27,12.4L208.9,291.9z"/>
				<path fill="#E89076" d="M221.5,293.3l15.5-5.3c2.2-6.6,5.9-9.2,9.9-10.5c0.6-0.2,1.1-0.8,1-1.5c0-0.1,0-0.2,0-0.3
					c-0.5-2.1-2-3.6-3.9-4.2l-0.2,0.1c-3.5,1.2-6.1,4-7.1,7.6l-2.9,7.2L221.5,293.3z"/>
				<path fill="#EFBFA9" d="M233.8,286.3l0.4-1c1.6-3.9,4.8-7,8.8-8.3l0,0c0.7-0.2,1.2-1,1-1.8l0,0c-0.7-3.2-3.9-5.1-7-4.3l-2.2,0.8
					c-3.5,1.2-6.1,4-7.1,7.6l0,0l-27.9,12.8L233.8,286.3z"/>
			</g>
			<path fill="#EFBFA9" d="M120.5,293.3l68.5,6.9l10.6,15.4c0,0-46.8,23.5-90.7,20.6c-19-1.3-25.6-25.8-9.9-36.5l2.5-1.7
				C107.1,294.3,113.8,292.6,120.5,293.3z"/>
		</g>
		<polygon fill="#FFFFFF" points="104.5,373.1 183,384 187.3,356.4 110.5,356.3 		"/>
		<polygon fill="#FFFFFF" points="193.4,356.4 198.4,384 226.9,373.1 220.9,356.4 		"/>
	</g>
	<g>
		<g>
			<g>
				<path fill="#B22900" d="M255.7,429.3v41H464c5.1,0,9.4-3.5,11-8.3c0.5-1.3,0.7-2.7,0.7-4.2v-15.9c0-1.6-0.3-3.1-0.8-4.5
					c-1.7-4.7-5.9-8-10.9-8H255.7z"/>
				<path fill="#C43F00" d="M357.1,437.4V462H475c0.5-1.3,0.7-2.7,0.7-4.2v-15.9c0-1.6-0.3-3.1-0.8-4.5H357.1z"/>
				<circle fill="#FFB72F" cx="394" cy="449.7" r="9.1"/>
				<path fill="#C43F00" d="M353.2,429.3h-94v41h94c9.4,0,17-7.6,17-17v-6.9C370.2,437,362.6,429.3,353.2,429.3z"/>
				<path fill="#C43F00" d="M253.4,429.3h18v6.1h-18c-1.6,0-2.9-1.4-2.9-3.1l0,0C250.6,430.7,251.8,429.3,253.4,429.3z"/>
				<path fill="#C43F00" d="M253.1,464.1h18.3v6.1h-18.3c-1.4,0-2.6-1.1-2.6-2.6v-1C250.6,465.3,251.7,464.1,253.1,464.1z"/>
				<g>
					<path fill="#E9EEEC" d="M350.9,435.5h-95.2v28.7h95.2c6.6,0,11.9-5.3,11.9-11.9v-4.8C362.8,440.8,357.5,435.5,350.9,435.5z"/>
					<path fill="#FFFFFF" d="M348.5,439.2h-92.7v24.9h95.9c3.6,0,6.5-2.9,6.5-6.5v-8.8C358.1,443.6,353.8,439.2,348.5,439.2z"/>
					<g>
						<defs>
							<path id="SVGID_3_" d="M351.9,439.2h-96.1v24.9h98c2.4,0,4.4-2,4.4-4.4v-14.3C358.1,442,355.3,439.2,351.9,439.2z"/>
						</defs>
						<clipPath id="SVGID_4_">
							<use xlink:href="#SVGID_3_"  overflow="visible"/>
						</clipPath>
						<g clip-path="url(#SVGID_4_)">
							<line fill="none" stroke="#F1F4F6" stroke-miterlimit="10" x1="359" y1="444.4" x2="255.7" y2="444.4"/>
							<line fill="none" stroke="#F1F4F6" stroke-miterlimit="10" x1="362.5" y1="449.5" x2="255.7" y2="449.5"/>
							<line fill="none" stroke="#F1F4F6" stroke-miterlimit="10" x1="362.5" y1="454.5" x2="255.7" y2="454.5"/>
							<line fill="none" stroke="#F1F4F6" stroke-miterlimit="10" x1="362.5" y1="459.6" x2="255.7" y2="459.6"/>
						</g>
					</g>
				</g>
			</g>
			<path fill="#EAA105" d="M456.8,462h-1.1h-10.5c-1.6,4.8-5.9,8.3-11,8.3h10.5h1.1h10.5c5.1,0,9.4-3.4,11-8.3H456.8z"/>
			<path fill="#EAA105" d="M456.2,429.3h-10.5h-1.1h-10.5c5,0,9.2,3.3,10.9,8h10.5h1.1h10.5C465.5,432.7,461.2,429.3,456.2,429.3z"
				/>
			<path fill="#FFB72F" d="M467.2,437.4h-10.5h-1.1h-10.5c0.5,1.4,0.8,2.9,0.8,4.5v15.9c0,1.5-0.2,2.9-0.7,4.2h10.5h1.1h10.5
				c0.4-1.3,0.7-2.7,0.7-4.2v-15.9C468,440.3,467.7,438.8,467.2,437.4z"/>
			<g>
				<polyline fill="#DEE5E3" points="333.1,444.3 333.1,462 339,458.4 344.8,462 344.8,444.3 				"/>
				<polygon fill="#EAA105" points="328.7,458.4 335.4,454.9 340.4,458.4 344.8,444.3 333.1,444.3 				"/>
			</g>
		</g>
		<g>
			<g>
				<path fill="#EAA105" d="M454.2,399.7v29.7H276.6c-4.3,0-8-2.5-9.4-6c-0.4-1-0.6-2-0.6-3.1v-11.5c0-1.1,0.2-2.2,0.7-3.2
					c1.4-3.4,5.1-5.8,9.3-5.8H454.2z"/>
				<path fill="#FFB72F" d="M367.7,405.6v17.9H267.3c-0.4-1-0.6-2-0.6-3.1v-11.5c0-1.1,0.2-2.2,0.7-3.2H367.7z"/>
				<path fill="#C43F00" d="M341.5,417.4H279c-1.4,0-2.4-1.1-2.4-2.4v-1c0-1.4,1.1-2.4,2.4-2.4h62.5c1.4,0,2.4,1.1,2.4,2.4v1
					C343.9,416.4,342.9,417.4,341.5,417.4z"/>
				<path fill="#FFB72F" d="M368.9,399.7h82.4v29.7h-82.4c-6.8,0-12.3-5.5-12.3-12.3v-5C356.6,405.3,362.1,399.7,368.9,399.7z"/>
				<path fill="#FFB72F" d="M456.2,399.7h-15.3v4.4h15.3c1.4,0,2.4-1,2.4-2.2l0,0C458.6,400.7,457.5,399.7,456.2,399.7z"/>
				<path fill="#FFB72F" d="M456.8,425h-15.9v4.4h15.9c1,0,1.8-0.8,1.8-1.8v-0.7C458.6,425.8,457.8,425,456.8,425z"/>
				<g>
					<path fill="#E9EEEC" d="M454.2,404.2V425h-80.9c-1.8,0-3.4-0.5-4.9-1.2c-3.3-1.7-5.5-5.2-5.5-9.2c0-2.9,1.2-5.5,3-7.3
						c1.9-1.9,4.5-3,7.3-3H454.2z"/>
					<path fill="#FFFFFF" d="M454.2,406.9V425h-80.9c-1.8,0-3.4-0.5-4.9-1.2c-0.9-0.8-1.5-2-1.5-3.4v-1.5c0-6.6,5.3-11.9,11.9-11.9
						H454.2z"/>
					<g>
						<defs>
							<path id="SVGID_5_" d="M377.9,406.9h76.3V425h-83.3c-2.2,0-4-1.8-4-4v-3C366.9,411.9,371.8,406.9,377.9,406.9z"/>
						</defs>
						<clipPath id="SVGID_6_">
							<use xlink:href="#SVGID_5_"  overflow="visible"/>
						</clipPath>
						<g clip-path="url(#SVGID_6_)">
							<line fill="none" stroke="#F1F4F6" stroke-miterlimit="10" x1="366.2" y1="410.7" x2="454.2" y2="410.7"/>
							<line fill="none" stroke="#F1F4F6" stroke-miterlimit="10" x1="363.2" y1="414.3" x2="454.2" y2="414.3"/>
							<line fill="none" stroke="#F1F4F6" stroke-miterlimit="10" x1="363.2" y1="418" x2="454.2" y2="418"/>
							<line fill="none" stroke="#F1F4F6" stroke-miterlimit="10" x1="363.2" y1="421.7" x2="454.2" y2="421.7"/>
						</g>
					</g>
				</g>
			</g>
		</g>
		<g>
			<g>
				<path fill="#450000" d="M464.7,359v40.7H269.3c-6.7,0-12.7-3.2-16.4-8.2c-2.5-3.4-4-7.6-4-12.1c0-4.5,1.5-8.7,4-12.1
					c0.6-0.8,1.2-1.6,2-2.3c3.7-3.7,8.8-6,14.4-6H464.7z"/>
				<path fill="#5E2222" d="M374.7,367.2v24.3H253c-2.5-3.4-4-7.6-4-12.1c0-4.5,1.5-8.7,4-12.1H374.7z"/>
				<path fill="#5E2222" d="M359.9,359h101.2v40.7H359.9c-9.4,0-16.9-7.6-16.9-16.9V376C342.9,366.6,350.5,359,359.9,359z"/>
				<path fill="#5E2222" d="M467.1,359H448v6.1h19.1c1.7,0,3.1-1.4,3.1-3.1l0,0C470.2,360.4,468.8,359,467.1,359z"/>
				<path fill="#5E2222" d="M467.6,393.6H448v6.1h19.6c1.4,0,2.5-1.1,2.5-2.5v-1C470.2,394.8,469,393.6,467.6,393.6z"/>
				<g>
					<path fill="#F2F5F4" d="M464.7,365.1v28.5H365c-7.5,0-13.6-5.7-14.2-13c0-0.4,0-0.8,0-1.2c0-3.9,1.6-7.5,4.2-10.1
						c2.6-2.6,6.1-4.2,10.1-4.2H464.7z"/>
					<path fill="#FFFFFF" d="M464.7,369.7v23.9H365c-7.5,0-13.6-5.7-14.2-13c0.3-2.9,1.5-5.4,3.4-7.3c2.2-2.2,5.1-3.5,8.5-3.5H464.7
						z"/>
					<g>
						<defs>
							<path id="SVGID_7_" d="M362.6,365.1h102.1v28.5h-99c-8.3,0-14.9-6.7-14.9-14.9V377C350.8,370.4,356.1,365.1,362.6,365.1z"/>
						</defs>
						<clipPath id="SVGID_8_">
							<use xlink:href="#SVGID_7_"  overflow="visible"/>
						</clipPath>
						<g clip-path="url(#SVGID_8_)">
							<line fill="none" stroke="#F1F4F6" stroke-miterlimit="10" x1="354.9" y1="372.1" x2="464.7" y2="372.1"/>
							<line fill="none" stroke="#F1F4F6" stroke-miterlimit="10" x1="351.1" y1="377.8" x2="464.7" y2="377.8"/>
							<line fill="none" stroke="#F1F4F6" stroke-miterlimit="10" x1="351.1" y1="383.4" x2="464.7" y2="383.4"/>
							<line fill="none" stroke="#F1F4F6" stroke-miterlimit="10" x1="351.1" y1="389.1" x2="464.7" y2="389.1"/>
						</g>
					</g>
					<polyline fill="#DEE5E3" points="383.3,372.1 383.3,391.5 376.8,387.6 370.4,391.5 370.4,372.1 					"/>
					<polygon fill="#C43F00" points="388.1,387.6 380.8,383.7 375.2,387.6 370.4,372.1 383.3,372.1 					"/>
				</g>
				<line fill="#F1F4F6" x1="372.3" y1="370.9" x2="384.3" y2="370.9"/>
			</g>
			<path fill="#B22900" d="M301,399.7h-22.4c-6.7,0-12.7-3.2-16.4-8.2c-2.5-3.4-4-7.6-4-12.1c0-4.5,1.5-8.7,4-12.1
				c0.6-0.8,1.2-1.6,2-2.3c3.7-3.7,8.8-6,14.4-6H301c-5.6,0-10.7,2.3-14.4,6c-0.7,0.7-1.4,1.5-2,2.3c-2.5,3.4-4,7.6-4,12.1
				c0,4.5,1.5,8.7,4,12.1C288.3,396.5,294.3,399.7,301,399.7z"/>
			<path fill="#B22900" d="M316,399.7h-9.7c-6.7,0-12.7-3.2-16.4-8.2c-2.5-3.4-4-7.6-4-12.1c0-4.5,1.5-8.7,4-12.1
				c0.6-0.8,1.2-1.6,2-2.3c3.7-3.7,8.8-6,14.4-6h9.7c-5.6,0-10.7,2.3-14.4,6c-0.7,0.7-1.4,1.5-2,2.3c-2.5,3.4-4,7.6-4,12.1
				c0,4.5,1.5,8.7,4,12.1C303.4,396.5,309.3,399.7,316,399.7z"/>
			<path fill="#C43F00" d="M280.6,379.4c0,4.5,1.5,8.7,4,12.1h-22.4c-2.5-3.4-4-7.6-4-12.1c0-4.5,1.5-8.7,4-12.1h22.4
				C282.1,370.6,280.6,374.8,280.6,379.4z"/>
			<path fill="#C43F00" d="M295.6,379.4c0,4.5,1.5,8.7,4,12.1H290c-2.5-3.4-4-7.6-4-12.1c0-4.5,1.5-8.7,4-12.1h9.7
				C297.1,370.6,295.6,374.8,295.6,379.4z"/>
			<path fill="#B22900" d="M356.3,399.7h-9.7c-6.7,0-12.7-3.2-16.4-8.2c-2.5-3.4-4-7.6-4-12.1c0-4.5,1.5-8.7,4-12.1
				c0.6-0.8,1.2-1.6,2-2.3c3.7-3.7,8.8-6,14.4-6h9.7c-5.6,0-10.7,2.3-14.4,6c-0.7,0.7-1.4,1.5-2,2.3c-2.5,3.4-4,7.6-4,12.1
				c0,4.5,1.5,8.7,4,12.1C343.7,396.5,349.6,399.7,356.3,399.7z"/>
			<path fill="#C43F00" d="M336,379.4c0,4.5,1.5,8.7,4,12.1h-9.7c-2.5-3.4-4-7.6-4-12.1c0-4.5,1.5-8.7,4-12.1h9.7
				C337.5,370.6,336,374.8,336,379.4z"/>
		</g>
	</g>
	<path fill="#F2F5F4" d="M325,267h82.2c5.2,0,9.3-4.2,9.3-9.3l0,0c0-5.2-4.2-9.3-9.3-9.3H325c-5.2,0-9.3,4.2-9.3,9.3l0,0
		C315.6,262.8,319.8,267,325,267z"/>
	<g>
		<path fill="#F2F5F4" d="M326,355.7h81.6c5.7,0,10.3-4.6,10.3-10.3V285c0-5.7-4.6-10.3-10.3-10.3H326c-5.7,0-10.3,4.6-10.3,10.3
			v60.4C315.6,351.1,320.3,355.7,326,355.7z"/>
		<g>
			<path fill="#FFFFFF" stroke="#F1F1F3" stroke-miterlimit="10" d="M341,350h81.6c5.7,0,10.3-4.6,10.3-10.3v-60.4
				c0-5.7-4.6-10.3-10.3-10.3H341c-5.7,0-10.3,4.6-10.3,10.3v60.4C330.6,345.4,335.2,350,341,350z"/>
			<g>
				<path fill="#FFFFFF" stroke="#F1F1F3" stroke-miterlimit="10" d="M339.9,261.3h82.2c5.2,0,9.3-4.2,9.3-9.3l0,0
					c0-5.2-4.2-9.3-9.3-9.3h-82.2c-5.2,0-9.3,4.2-9.3,9.3l0,0C330.6,257.1,334.8,261.3,339.9,261.3z"/>
				<circle fill="#D57548" cx="342.2" cy="252" r="4.2"/>
				<circle fill="#FFB72F" cx="358.9" cy="252" r="4.2"/>
				<circle fill="#AABC95" cx="375.5" cy="252" r="4.2"/>
			</g>
			<g>
				
					<line fill="none" stroke="#E3E9E7" stroke-width="5" stroke-linecap="round" stroke-linejoin="round" stroke-miterlimit="10" x1="342.9" y1="285.3" x2="419.2" y2="285.3"/>
				
					<line fill="none" stroke="#E3E9E7" stroke-width="5" stroke-linecap="round" stroke-linejoin="round" stroke-miterlimit="10" x1="342.9" y1="294.6" x2="385.7" y2="294.6"/>
			</g>
		</g>
		<g>
			<rect x="345.2" y="327.2" fill="none" stroke="#FFB72F" stroke-width="3" stroke-miterlimit="10" width="12" height="12"/>
			<polygon fill="none" stroke="#AABC95" stroke-width="3" stroke-linejoin="round" stroke-miterlimit="10" points="345.2,339.2 
				345.2,304.1 417.7,339.2 			"/>
		</g>
	</g>
	<g>
		<g>
			<g>
				<g>
					<path fill="none" stroke="#EAA105" stroke-miterlimit="10" d="M305.3,155.7c-0.7,0-1.3,0-2,0"/>
					<path fill="none" stroke="#EAA105" stroke-miterlimit="10" stroke-dasharray="4.1538,2.0769" d="M301.3,155.8
						c-25.4,2.7-35.6,34.5-23.9,52"/>
					<path fill="none" stroke="#EAA105" stroke-miterlimit="10" d="M278,208.7c0.4,0.5,0.8,1.1,1.2,1.6"/>
				</g>
			</g>
			<circle fill="#EAA105" cx="279.1" cy="210.2" r="5.7"/>
		</g>
		<g>
			<g>
				<g>
					<path fill="none" stroke="#AABC95" stroke-miterlimit="10" d="M440.9,290.9c0.7,0.1,1.3,0.3,2,0.4"/>
					<path fill="none" stroke="#AABC95" stroke-miterlimit="10" stroke-dasharray="4.1538,2.0769" d="M445,291.5
						c25.4,2.4,41.7-26.8,33.6-46.3"/>
					<path fill="none" stroke="#AABC95" stroke-miterlimit="10" d="M478.2,244.3c-0.3-0.6-0.6-1.2-0.9-1.8"/>
				</g>
			</g>
			<circle fill="#AABC95" cx="477.4" cy="242.6" r="5.7"/>
		</g>
		<g>
			<g>
				<g>
					<path fill="none" stroke="#D7E0DD" stroke-miterlimit="10" d="M384.9,109.5c0.2-0.6,0.4-1.3,0.6-1.9"/>
					<path fill="none" stroke="#D7E0DD" stroke-miterlimit="10" stroke-dasharray="4.1538,2.0769" d="M385.9,105.6
						c4.9-25-22.5-44.1-42.7-38.1"/>
					<path fill="none" stroke="#D7E0DD" stroke-miterlimit="10" d="M342.2,67.8c-0.6,0.2-1.2,0.5-1.9,0.7"/>
				</g>
			</g>
			<circle fill="#D7E0DD" cx="340.4" cy="68.4" r="5.7"/>
		</g>
	</g>
	<g>
		<g>
			
				<line fill="none" stroke="#D7E0DD" stroke-width="5" stroke-linecap="round" stroke-linejoin="round" stroke-miterlimit="10" x1="82.3" y1="112.6" x2="104.1" y2="112.6"/>
			
				<line fill="none" stroke="#D7E0DD" stroke-width="5" stroke-linecap="round" stroke-linejoin="round" stroke-miterlimit="10" x1="82.3" y1="123.7" x2="94.5" y2="123.7"/>
		</g>
		<g>
			
				<line fill="none" stroke="#D7E0DD" stroke-width="5" stroke-linecap="round" stroke-linejoin="round" stroke-miterlimit="10" x1="276.9" y1="106" x2="352" y2="106"/>
			
				<line fill="none" stroke="#D7E0DD" stroke-width="5" stroke-linecap="round" stroke-linejoin="round" stroke-miterlimit="10" x1="276.9" y1="116.8" x2="304.1" y2="116.8"/>
		</g>
		<g>
			
				<line fill="none" stroke="#D7E0DD" stroke-width="5" stroke-linecap="round" stroke-linejoin="round" stroke-miterlimit="10" x1="456.9" y1="317.2" x2="479.7" y2="317.2"/>
			
				<line fill="none" stroke="#D7E0DD" stroke-width="5" stroke-linecap="round" stroke-linejoin="round" stroke-miterlimit="10" x1="446.3" y1="317.2" x2="449.3" y2="317.2"/>
			
				<line fill="none" stroke="#D7E0DD" stroke-width="5" stroke-linecap="round" stroke-linejoin="round" stroke-miterlimit="10" x1="467.9" y1="326.2" x2="479.7" y2="326.2"/>
		</g>
	</g>
	<g>
		<path fill="#D7E0DD" d="M251.8,58.1v14.1l-12.7,15.2h53.4c16.2,0,29.3-13.1,29.3-29.3l0,0c0-16.2-13.1-29.3-29.3-29.3h-11.5
			C264.9,28.9,251.8,42,251.8,58.1z"/>
		<g>
			<circle fill="#F2F5F4" cx="269.2" cy="64.7" r="5.2"/>
			<circle fill="#F2F5F4" cx="286.8" cy="64.7" r="5.2"/>
			<circle fill="#F2F5F4" cx="304.5" cy="64.7" r="5.2"/>
		</g>
	</g>
	<g>
		<g>
			<circle fill="#D7E0DD" cx="233.1" cy="435.8" r="8.6"/>
			<circle fill="#D7E0DD" cx="432.4" cy="95.4" r="5.6"/>
			<circle fill="#D7E0DD" cx="40.8" cy="107.5" r="7.8"/>
			<circle fill="#D7E0DD" cx="87.2" cy="430.6" r="4.9"/>
		</g>
		<g>
			<circle fill="#AABC95" cx="169.3" cy="417.8" r="3.3"/>
			<circle fill="#AABC95" cx="221.6" cy="47.6" r="3.4"/>
			<circle fill="#AABC95" cx="404.2" cy="77.5" r="3.4"/>
			<circle fill="#AABC95" cx="17.4" cy="247.7" r="5.2"/>
			<circle fill="#AABC95" cx="486" cy="340.5" r="2.9"/>
		</g>
		<g>
			<circle fill="#D7E0DD" cx="109.4" cy="44.3" r="11.3"/>
			<circle fill="#D7E0DD" cx="99.6" cy="76.1" r="11.3"/>
			<circle fill="#D7E0DD" cx="141.3" cy="62.2" r="11.3"/>
			
				<line fill="none" stroke="#D7E0DD" stroke-width="5" stroke-linecap="round" stroke-linejoin="round" stroke-miterlimit="10" x1="99.6" y1="76.1" x2="109.4" y2="44.3"/>
			
				<line fill="none" stroke="#D7E0DD" stroke-width="5" stroke-linecap="round" stroke-linejoin="round" stroke-miterlimit="10" x1="141.3" y1="62.2" x2="110.9" y2="44.3"/>
			
				<line fill="none" stroke="#D7E0DD" stroke-width="5" stroke-linecap="round" stroke-linejoin="round" stroke-miterlimit="10" x1="99.6" y1="76.1" x2="141.3" y2="62.2"/>
		</g>
	</g>
</g>
</svg>
